<?xml version="1.0" encoding="utf-8"?>
<!-- Generator: Adobe Illustrator 16.0.0, SVG Export Plug-In . SVG Version: 6.00 Build 0)  -->
<!DOCTYPE svg PUBLIC "-//W3C//DTD SVG 1.1//EN" "http://www.w3.org/Graphics/SVG/1.1/DTD/svg11.dtd">
<svg version="1.1" id="Layer_1" xmlns="http://www.w3.org/2000/svg" xmlns:xlink="http://www.w3.org/1999/xlink" x="0px" y="0px"
	 width="600px" height="600px" viewBox="0 0 600 600" enable-background="new 0 0 600 600" xml:space="preserve">
<g>
	<path fill="#FFFFFF" d="M188.537,370.333c-14.361,0.009-26.03-11.674-26.031-26.034l-0.006-79.702
		c-0.004-14.345,11.66-26.025,26.001-26.028c6.974-0.006,13.502,2.7,18.426,7.614c4.924,4.917,7.63,11.457,7.635,18.407
		l-0.007,79.709c0.018,6.939-2.681,13.479-7.598,18.391C202.045,367.618,195.5,370.331,188.537,370.333"/>
	<path fill="#FFFFFF" d="M188.515,245.564c-10.51-0.004-19.028,8.53-19.03,19.031l0.014,79.699
		c0.002,10.538,8.537,19.042,19.034,19.051c10.52-0.013,19.04-8.519,19.028-19.049l0.002-79.713
		C207.56,254.087,199.028,245.558,188.515,245.564"/>
	<path fill="#FFFFFF" d="M392.677,249.511l-6.993-0.003l-171.443,0.024l-7,0.002l-0.002-7
		c-0.017-28.729,15.639-55.449,41.273-71.236l-9.967-18.192c-1.221-2.133-1.525-4.832-0.818-7.301
		c0.721-2.469,2.425-4.589,4.706-5.804c1.319-0.748,2.929-1.165,4.562-1.162c3.53,0,6.765,1.916,8.468,5.013l10.431,19.002
		c10.795-3.961,22.192-5.98,33.965-5.976c11.941-0.006,23.397,2.017,34.236,5.992l10.415-19.034
		c1.678-3.089,4.936-5.014,8.459-5.011c1.587-0.001,3.169,0.386,4.565,1.139c2.346,1.284,3.979,3.335,4.696,5.821
		c0.716,2.471,0.428,5.08-0.827,7.344l-9.96,18.183c25.597,15.819,41.229,42.52,41.228,71.199L392.677,249.511z"/>
	<path fill="#FFFFFF" d="M341.995,173.994l13.284-24.259c0.709-1.268,0.245-2.891-1.035-3.593c-1.3-0.698-2.903-0.222-3.588,1.052
		l-13.42,24.502c-11.288-5.01-23.931-7.832-37.291-7.818c-13.333-0.012-25.95,2.796-37.205,7.792l-13.432-24.448
		c-0.693-1.29-2.314-1.761-3.576-1.05c-1.291,0.688-1.762,2.31-1.047,3.574l13.29,24.238c-26.112,13.47-43.753,39.113-43.741,68.555
		l171.441-0.017C385.68,213.083,368.069,187.493,341.995,173.994 M260.954,211.479c-3.949-0.009-7.164-3.218-7.166-7.183
		c0.001-3.95,3.215-7.195,7.172-7.195c3.975-0.003,7.19,3.246,7.196,7.193C268.157,208.257,264.935,211.477,260.954,211.479
		 M339.016,211.466c-3.962,0.004-7.197-3.205-7.19-7.187c0-3.939,3.225-7.188,7.196-7.202c3.94,0.012,7.172,3.262,7.168,7.207
		C346.193,208.251,342.978,211.467,339.016,211.466"/>
	<path fill="#FFFFFF" d="M268.138,461.176c-14.348-0.002-26.026-11.671-26.029-26.028l-0.006-35.177l-6.835,0.005
		c-7.308,0.002-14.162-2.837-19.314-7.993c-5.162-5.151-8.002-12.012-7.993-19.322l-0.024-123.492l-0.002-7.003h7l170.156-0.026
		l6.999-0.005v6.999l0.018,123.51c0.006,15.059-12.25,27.319-27.309,27.315l-6.884,0.007l0.011,35.165
		c-0.002,14.346-11.673,26.028-26.016,26.028c-6.952,0.018-13.479-2.688-18.405-7.614c-4.931-4.915-7.645-11.449-7.642-18.398
		v-35.182h-11.696v35.173C294.163,449.49,282.49,461.18,268.138,461.176"/>
	<path fill="#FFFFFF" d="M214.966,372.66c-0.011,11.247,9.069,20.326,20.304,20.321l13.828,0.001l0.017,42.171
		c-0.002,10.498,8.527,19.033,19.019,19.035c10.518,0,19.037-8.542,19.027-19.05l0.002-42.159l25.695-0.006l-0.004,42.169
		c0.011,10.5,8.551,19.04,19.039,19.026c10.517,0.007,19.041-8.537,19.039-19.043l-0.011-42.157l13.879-0.004
		c11.198,0.004,20.308-9.097,20.307-20.319l-0.021-123.518l-170.149,0.031L214.966,372.66z"/>
	<path fill="#FFFFFF" d="M411.484,370.301c-14.352,0.002-26.03-11.663-26.026-26.021l-0.019-79.703
		c0.004-14.357,11.661-26.034,26.008-26.035c14.365-0.002,26.048,11.673,26.046,26.028l0.007,79.697
		C437.504,358.615,425.842,370.303,411.484,370.301"/>
	<path fill="#FFFFFF" d="M411.465,245.539c-10.513-0.009-19.03,8.527-19.028,19.039l0.009,79.7
		c0.004,10.522,8.519,19.037,19.037,19.03c10.512-0.002,19.018-8.508,19.028-19.037l-0.021-79.698
		C430.483,254.057,421.973,245.537,411.465,245.539"/>
	<path fill="#A4C439" d="M188.515,245.564c-10.51-0.004-19.028,8.53-19.03,19.031l0.014,79.699
		c0.002,10.538,8.525,19.04,19.035,19.038c10.518,0,19.037-8.506,19.027-19.036v-79.713
		C207.56,254.087,199.028,245.558,188.515,245.564 M341.995,173.994l13.284-24.259c0.709-1.268,0.243-2.882-1.042-3.598
		c-1.294-0.686-2.895-0.22-3.581,1.056l-13.415,24.512c-11.292-5.022-23.926-7.843-37.295-7.829
		c-13.333-0.012-25.962,2.797-37.205,7.792L249.31,147.22c-0.699-1.291-2.308-1.757-3.576-1.054
		c-1.291,0.696-1.763,2.313-1.047,3.578l13.29,24.24c-26.112,13.468-43.755,39.112-43.741,68.553l171.44-0.018
		C385.68,213.083,368.069,187.493,341.995,173.994 M260.954,211.479c-3.949-0.009-7.164-3.218-7.166-7.183
		c0.001-3.95,3.211-7.196,7.172-7.195c3.975-0.003,7.19,3.246,7.196,7.193C268.157,208.257,264.935,211.477,260.954,211.479
		 M339.016,211.466c-3.962,0.004-7.191-3.209-7.19-7.187c0.017-3.937,3.225-7.188,7.196-7.202c3.94,0.012,7.172,3.262,7.168,7.207
		C346.202,208.252,342.978,211.467,339.016,211.466 M214.937,249.159l0.03,123.512c-0.009,11.234,9.076,20.305,20.306,20.307
		l13.828,0.005l0.017,42.171c-0.003,10.498,8.533,19.035,19.018,19.035c10.518,0,19.037-8.542,19.04-19.048l-0.01-42.161
		l25.694-0.008l0.013,42.171c-0.004,10.491,8.536,19.042,19.024,19.026c10.517,0.007,19.04-8.537,19.04-19.043l-0.012-42.157
		l13.875-0.009c11.202,0.001,20.315-9.077,20.317-20.314l-0.021-123.516L214.937,249.159z M430.494,264.566
		c-0.001-10.511-8.521-19.031-19.029-19.028c-10.512-0.009-19.028,8.526-19.028,19.038l0.015,79.701
		c0,10.522,8.515,19.026,19.031,19.028c10.512-0.002,19.026-8.506,19.028-19.037L430.494,264.566z"/>
</g>
</svg>
