<?xml version="1.0" encoding="utf-8"?>
<!-- Generator: Adobe Illustrator 14.0.0, SVG Export Plug-In . SVG Version: 6.00 Build 43363)  -->
<!DOCTYPE svg PUBLIC "-//W3C//DTD SVG 1.1//EN" "http://www.w3.org/Graphics/SVG/1.1/DTD/svg11.dtd">
<svg version="1.1" id="Layer_1" xmlns="http://www.w3.org/2000/svg" xmlns:xlink="http://www.w3.org/1999/xlink" x="0px" y="0px"
	 width="600px" height="600px" viewBox="0 0 600 600" enable-background="new 0 0 600 600" xml:space="preserve">
<g>
	<polygon fill="#FF001B" stroke="#000000" points="296.178,567.924 295.738,548.864 272.643,533.681 250.283,550.415 
		250.687,567.924 	"/>
	<polygon fill="#FF001B" stroke="#000000" points="348.459,567.924 348.019,548.864 324.923,533.681 302.563,550.415 
		302.967,567.924 	"/>
	<g>
		<g>
			<rect x="143.517" y="241.882" fill="#2100FF" stroke="#000000" width="36.734" height="37.755"/>
			<rect x="125.149" y="388.496" stroke="#000000" width="10.204" height="16.467"/>
			<rect x="117.551" y="258.533" fill="#B4B4B4" stroke="#000000" width="25.51" height="129.963"/>
			<rect x="104.797" y="226.573" fill="#787878" stroke="#000000" width="51.02" height="63.452"/>
			<path fill="#FF5B3F" stroke="#000000" d="M114.144,457.68l6.853-13.805c-4.449-2.997-7.376-8.08-7.376-13.849
				c0-9.215,7.471-16.686,16.687-16.686c9.215,0,16.686,7.471,16.686,16.686c0,5.732-2.893,10.787-7.296,13.791l6.795,13.85
				c9.479-5.563,15.848-15.855,15.848-27.64c0-17.691-14.342-32.033-32.032-32.033c-17.691,0-32.033,14.342-32.033,32.033
				C98.274,441.821,104.653,452.119,114.144,457.68z"/>
		</g>
		<g>
			<rect x="415.362" y="240.689" fill="#2100FF" stroke="#000000" width="36.734" height="37.755"/>
			<rect x="467.293" y="382.896" stroke="#000000" width="10.205" height="16.467"/>
			<rect x="459.695" y="252.934" fill="#B4B4B4" stroke="#000000" width="25.51" height="129.963"/>
			<rect x="441.784" y="228.176" fill="#787878" stroke="#000000" width="51.02" height="63.452"/>
			<path fill="#FF5B3F" stroke="#000000" d="M456.288,451.045l6.853-13.805c-4.449-2.997-7.376-8.08-7.376-13.849
				c0-9.215,7.471-16.686,16.687-16.686c9.215,0,16.686,7.471,16.686,16.686c0,5.732-2.893,10.787-7.296,13.791l6.795,13.85
				c9.479-5.563,15.848-15.855,15.848-27.64c0-17.691-14.342-32.033-32.032-32.033c-17.691,0-32.033,14.342-32.033,32.033
				C440.418,435.187,446.797,445.484,456.288,451.045z"/>
		</g>
		<rect x="258.666" y="501.058" fill="#B4B4B4" stroke="#000000" width="29.13" height="49.744"/>
		<rect x="310.945" y="501.058" fill="#B4B4B4" stroke="#000000" width="29.131" height="49.744"/>
		<path fill="#1F2AFF" stroke="#000000" d="M315.605,213.393c5.299-2.057,8.646-5.065,8.646-8.418H273.23
			c0,3.354,3.347,6.362,8.646,8.418c-5.299,2.057-8.646,5.065-8.646,8.418h51.021C324.251,218.458,320.904,215.45,315.605,213.393z"
			/>
		<g>
			<polygon fill="#B4B4B4" stroke="#000000" points="170.906,221.812 170.906,327.334 254.287,503.516 348.484,503.516 
				429.094,333.189 429.094,221.812 			"/>
			<rect x="197.607" y="230.996" fill="#C8C8C8" stroke="#000000" width="140.385" height="87.754"/>
			<rect x="202.516" y="237.118" fill="#0027FF" stroke="#000000" width="79.519" height="75.511"/>
			<rect x="286.943" y="237.118" fill="#FFF700" stroke="#000000" width="41.231" height="75.511"/>
			<ellipse fill="#C8C8C8" stroke="#000000" cx="378.241" cy="255.486" rx="21.106" ry="21.938"/>
			<ellipse fill="#C8C8C8" stroke="#000000" cx="378.239" cy="300.383" rx="21.106" ry="21.939"/>
			<ellipse fill="#FF1F37" stroke="#000000" cx="378.241" cy="255.486" rx="17.671" ry="18.368"/>
			<ellipse fill="#FFF01F" stroke="#000000" cx="378.241" cy="300.383" rx="17.671" ry="18.367"/>
			<ellipse fill="#7FAAFF" stroke="#000000" cx="194.74" cy="335.158" rx="6.704" ry="6.969"/>
			<ellipse fill="#7FAAFF" stroke="#000000" cx="215.925" cy="335.158" rx="6.704" ry="6.969"/>
			<ellipse fill="#7FAAFF" stroke="#000000" cx="235.571" cy="335.158" rx="6.704" ry="6.969"/>
			<ellipse fill="#7FAAFF" stroke="#000000" cx="253.565" cy="335.158" rx="6.704" ry="6.969"/>
		</g>
		<g>
			<rect x="200.647" y="135.735" fill="#B4B4B4" stroke="#000000" width="22.02" height="38.343"/>
			<rect x="376.721" y="135.735" fill="#B4B4B4" stroke="#000000" width="22.02" height="38.343"/>
			<g>
				<circle stroke="#000000" cx="298.741" cy="60.913" r="20.918"/>
				<path fill="#323232" stroke="#000000" d="M303.357,105.823V70.607h-9.232v35.216c-5.047,1.732-8.649,6.206-8.649,11.468
					c0,6.762,5.939,12.245,13.265,12.245c7.326,0,13.265-5.482,13.265-12.245C312.006,112.029,308.403,107.556,303.357,105.823z"/>
				<circle fill="#FF371F" stroke="#000000" cx="298.741" cy="60.913" r="15.816"/>
			</g>
			<rect x="218.001" y="117.29" fill="#B4B4B4" stroke="#000000" width="162.091" height="87.685"/>
			<g>
				<circle fill="#FFE43F" stroke="#000000" cx="268.777" cy="148.146" r="25.931"/>
				<circle fill="#FFE43F" stroke="#000000" cx="329.318" cy="148.146" r="25.931"/>
			</g>
			<rect x="255.169" y="186.423" stroke="#000000" width="87.755" height="13.265"/>
		</g>
	</g>
	<g>
		<g>
			<line fill="#231F20" stroke="#000000" x1="215.354" y1="356.19" x2="245.663" y2="486.215"/>
			<line fill="#231F20" stroke="#000000" x1="221.866" y1="356.19" x2="249.843" y2="486.215"/>
			<line fill="#231F20" stroke="#000000" x1="228.377" y1="356.19" x2="254.022" y2="486.215"/>
			<line fill="#231F20" stroke="#000000" x1="234.888" y1="356.19" x2="258.203" y2="486.215"/>
			<line fill="#231F20" stroke="#000000" x1="241.399" y1="356.19" x2="262.382" y2="486.215"/>
			<line fill="#231F20" stroke="#000000" x1="247.911" y1="356.19" x2="266.562" y2="486.215"/>
			<line fill="#231F20" stroke="#000000" x1="254.422" y1="356.19" x2="270.742" y2="486.215"/>
			<line fill="#231F20" stroke="#000000" x1="260.933" y1="356.19" x2="274.922" y2="486.215"/>
			<line fill="#231F20" stroke="#000000" x1="267.444" y1="356.19" x2="279.102" y2="486.215"/>
			<line fill="#231F20" stroke="#000000" x1="273.956" y1="356.19" x2="283.281" y2="486.215"/>
			<line fill="#231F20" stroke="#000000" x1="280.467" y1="356.19" x2="287.461" y2="486.215"/>
			<line fill="#231F20" stroke="#000000" x1="286.978" y1="356.19" x2="291.641" y2="486.215"/>
			<line fill="#231F20" stroke="#000000" x1="293.489" y1="356.19" x2="295.821" y2="486.215"/>
			<line fill="#231F20" stroke="#000000" x1="300" y1="356.19" x2="300" y2="486.215"/>
			<line fill="#231F20" stroke="#000000" x1="306.512" y1="356.19" x2="304.18" y2="486.214"/>
			<line fill="#231F20" stroke="#000000" x1="313.022" y1="356.19" x2="308.359" y2="486.214"/>
			<line fill="#231F20" stroke="#000000" x1="319.534" y1="356.19" x2="312.54" y2="486.214"/>
			<line fill="#231F20" stroke="#000000" x1="326.045" y1="356.19" x2="316.72" y2="486.214"/>
			<line fill="#231F20" stroke="#000000" x1="332.557" y1="356.19" x2="320.899" y2="486.214"/>
			<line fill="#231F20" stroke="#000000" x1="339.067" y1="356.19" x2="325.079" y2="486.214"/>
			<line fill="#231F20" stroke="#000000" x1="345.579" y1="356.19" x2="329.259" y2="486.214"/>
			<line fill="#231F20" stroke="#000000" x1="352.09" y1="356.19" x2="333.438" y2="486.214"/>
			<line fill="#231F20" stroke="#000000" x1="358.602" y1="356.19" x2="337.619" y2="486.214"/>
			<line fill="#231F20" stroke="#000000" x1="365.112" y1="356.19" x2="341.799" y2="486.214"/>
			<line fill="#231F20" stroke="#000000" x1="371.624" y1="356.19" x2="345.979" y2="486.214"/>
			<line fill="#231F20" stroke="#000000" x1="378.135" y1="356.19" x2="350.158" y2="486.214"/>
			<line fill="#231F20" stroke="#000000" x1="384.646" y1="356.19" x2="354.338" y2="486.214"/>
		</g>
	</g>
</g>
</svg>
