<?xml version="1.0" encoding="utf-8"?>
<!-- Generator: Adobe Illustrator 17.0.0, SVG Export Plug-In . SVG Version: 6.00 Build 0)  -->
<!DOCTYPE svg PUBLIC "-//W3C//DTD SVG 1.1//EN" "http://www.w3.org/Graphics/SVG/1.1/DTD/svg11.dtd">
<svg version="1.1" id="Layer_1" xmlns="http://www.w3.org/2000/svg" xmlns:xlink="http://www.w3.org/1999/xlink" x="0px" y="0px"
	 width="500px" height="500px" viewBox="0 0 500 500" enable-background="new 0 0 500 500" xml:space="preserve">
<g>
	<g>
		<path fill="#D4C2C7" d="M375.58,254.67c0,0,77.88,9.962,95.993-40.751c18.111-50.714-7.245-104.144-7.245-104.144l16.301-5.433
			c0,0,41.657,91.465-7.245,142.178c-25.356,32.602-103.238,29.885-103.238,29.885L375.58,254.67z"/>
		<path fill="#BF4542" d="M434.061,61.37c0,0,8.136,36.397,29.574,33.799c15.491-1.878,11.736-16.899,5.164-43.657l14.083-4.695
			c0,0,23.941,44.127-0.939,60.087c-25.682,16.476-53.046,5.163-63.842-40.371L434.061,61.37z"/>
	</g>
	<g>
		<path fill="#D4C2C7" d="M140.271,238.883c0,0-75.808,20.441-100.636-27.345c-24.827-47.786-6.958-104.163-6.958-104.163
			l-16.888-3.17c0,0-28.856,96.272,26.477,139.879c29.547,28.857,106.338,15.594,106.338,15.594L140.271,238.883z"/>
		<path fill="#BF4542" d="M56.093,55.31c0,0-3.121,37.165-24.713,37.501c-15.603,0.242-13.921-15.15-11.042-42.552l-14.59-2.74
			c0,0-17.729,46.968,9.087,59.403c27.681,12.837,53.255-2.084,57.771-48.663L56.093,55.31z"/>
	</g>
	<g>
		<g>
			<polygon fill="#BF4542" points="143.225,43.277 151.847,65.12 158.583,60.627 			"/>
			<polygon fill="#BF4542" points="160.18,62.431 152.744,67.392 159.35,84.127 171.948,75.724 			"/>
			<polygon fill="#BF4542" points="192.126,98.518 173.545,77.528 160.246,86.399 170.392,112.102 			"/>
			<circle fill="#52617D" cx="139.502" cy="36.531" r="12.12"/>
		</g>
		<g>
			<polygon fill="#BF4542" points="357.986,43.277 349.363,65.12 342.627,60.627 			"/>
			<polygon fill="#BF4542" points="341.03,62.431 348.467,67.392 341.861,84.127 329.262,75.724 			"/>
			<polygon fill="#BF4542" points="309.084,98.518 327.665,77.528 340.964,86.399 330.818,112.102 			"/>
			<circle fill="#52617D" cx="361.708" cy="36.531" r="12.121"/>
		</g>
		<g>
			<circle fill="#52617D" cx="188.156" cy="464.528" r="26.745"/>
			<circle fill="#3A475E" cx="188.157" cy="465.726" r="10.978"/>
		</g>
		<g>
			<circle fill="#52617D" cx="249.272" cy="464.528" r="26.745"/>
			<circle fill="#3A475E" cx="249.272" cy="465.726" r="10.977"/>
		</g>
		<g>
			<circle fill="#52617D" cx="310.387" cy="464.528" r="26.745"/>
			<circle fill="#3A475E" cx="310.387" cy="465.726" r="10.978"/>
		</g>
		<path fill="#BF4542" d="M156.809,411.852c0,0-17.206,45.883-13.584,47.695c3.623,1.811,208.285,6.339,208.285,0.905
			s-14.488-53.128-14.488-53.128L156.809,411.852z"/>
		<path fill="#59999E" d="M155.402,417.017c0,0-98.541-264.189,36.22-339.261c123.666-68.892,258.37,85.721,148.502,339.261H155.402
			z"/>
		<g>
			<g>
				<circle fill="#EFEBE7" cx="183.996" cy="182.466" r="37.129"/>
				<circle fill="#52617D" cx="183.996" cy="188.806" r="21.734"/>
				<circle fill="#EFEBE7" cx="183.996" cy="190.616" r="8.462"/>
			</g>
			<g>
				<circle fill="#EFEBE7" cx="311.805" cy="182.466" r="37.129"/>
				<circle fill="#52617D" cx="311.805" cy="188.806" r="21.734"/>
				<circle fill="#EFEBE7" cx="311.805" cy="190.616" r="8.461"/>
			</g>
		</g>
		<g>
			<path fill="#EFEBE7" d="M281.334,269.9l7.246,16.438c7.903-3.205,14.693-7.144,20.312-11.064l-10.181-14.277
				C293.905,264.236,288.126,267.386,281.334,269.9z"/>
			<path fill="#EFEBE7" d="M207.031,260.362l-11.489,14.151c5.784,4.304,12.72,8.519,20.785,11.879l4.886-17.434
				C215.761,266.47,211.042,263.468,207.031,260.362z"/>
			<path fill="#EFEBE7" d="M227.559,271.485l-4.848,17.295c7.71,2.563,16.319,4.281,25.815,4.618l-0.02-18.166
				C240.715,274.993,233.74,273.596,227.559,271.485z"/>
			<path fill="#EFEBE7" d="M328.272,257.681l-11.188-14.087c0,0-4.174,6.357-12.906,13.374l10.159,14.245
				C323.479,263.935,328.272,257.681,328.272,257.681z"/>
			<path fill="#EFEBE7" d="M255.297,275.153l0.02,18.253c9.897-0.33,18.87-2.116,26.87-4.732l-7.346-16.668
				C268.973,273.649,262.466,274.789,255.297,275.153z"/>
			<path fill="#EFEBE7" d="M189.308,240.761l-15.374,11.897c0,0,5.486,8.428,16.296,17.623l11.619-14.313
				C193.346,248.074,189.308,240.761,189.308,240.761z"/>
		</g>
		<path fill="#EFEBE7" d="M189.629,417.067h127.217c0,0,5.433-91.451-57.496-100.959
			C195.514,311.128,185.102,382.206,189.629,417.067z"/>
		<path fill="#D4C2C7" d="M243.868,325.884c-46.467,8.26-47.302,73.785-46.696,91.133h110.065
			C308.558,376.693,292.9,317.167,243.868,325.884z"/>
		<path fill="#F4D3C5" d="M285.391,339.78H218.14c-2.172,2.315-4.124,4.836-5.879,7.506h78.813
			C289.337,344.596,287.446,342.081,285.391,339.78z"/>
		<path fill="#F4D3C5" d="M203.217,366.919h97.067c-0.86-2.562-1.808-5.071-2.846-7.506h-91.504
			C204.919,361.872,204.017,364.383,203.217,366.919z"/>
		<path fill="#F4D3C5" d="M198.821,386.55h106.322c-0.427-2.511-0.92-5.019-1.482-7.506H200.119
			C199.609,381.578,199.18,384.09,198.821,386.55z"/>
		<path fill="#F4D3C5" d="M197.149,406.183h110.038c-0.099-2.469-0.261-4.977-0.485-7.506H197.521
			C197.333,401.344,197.216,403.862,197.149,406.183z"/>
	</g>
</g>
</svg>
