<?xml version="1.0" encoding="utf-8"?>
<!-- Generator: Adobe Illustrator 14.0.0, SVG Export Plug-In . SVG Version: 6.00 Build 43363)  -->
<!DOCTYPE svg PUBLIC "-//W3C//DTD SVG 1.1//EN" "http://www.w3.org/Graphics/SVG/1.1/DTD/svg11.dtd">
<svg version="1.1" id="Layer_1" xmlns="http://www.w3.org/2000/svg" xmlns:xlink="http://www.w3.org/1999/xlink" x="0px" y="0px"
	 width="600px" height="600px" viewBox="0 0 600 600" enable-background="new 0 0 600 600" xml:space="preserve">
<rect x="293.877" y="34.021" fill="#CCCCCC" stroke="#000000" stroke-width="4" width="12.246" height="36.734"/>
<circle fill="#666666" stroke="#000000" stroke-width="4" cx="300" cy="90.144" r="23.98"/>
<rect x="390.225" y="108.511" fill="#808080" stroke="#000000" stroke-width="6" width="25.511" height="84.694"/>
<radialGradient id="SVGID_1_" cx="300" cy="211.5713" r="26.1973" gradientUnits="userSpaceOnUse">
	<stop  offset="0" style="stop-color:#FFFFFF"/>
	<stop  offset="0.3596" style="stop-color:#9FD4FA"/>
	<stop  offset="0.4831" style="stop-color:#93CEF9"/>
	<stop  offset="0.7084" style="stop-color:#72C0F8"/>
	<stop  offset="1" style="stop-color:#3FA9F5"/>
</radialGradient>
<rect x="265.816" y="197.286" fill="url(#SVGID_1_)" stroke="#000000" stroke-width="6" width="68.367" height="28.571"/>
<rect x="183.163" y="108.51" fill="#808080" stroke="#000000" stroke-width="6" width="25.51" height="84.694"/>
<rect x="202.551" y="90.144" fill="#B3B3B3" stroke="#000000" stroke-width="4" width="194.898" height="121.428"/>
<circle fill="#CF0000" stroke="#000000" stroke-width="3" cx="298.98" cy="29.429" r="18.878"/>
<circle fill="#EBC900" stroke="#000000" stroke-width="3" cx="253.061" cy="131.469" r="22.959"/>
<circle fill="#EBC900" stroke="#000000" stroke-width="3" cx="346.939" cy="131.469" r="22.958"/>
<radialGradient id="SVGID_2_" cx="300" cy="186.5713" r="50.5202" gradientUnits="userSpaceOnUse">
	<stop  offset="0" style="stop-color:#FFFFFF"/>
	<stop  offset="0.3596" style="stop-color:#9FD4FA"/>
	<stop  offset="0.4831" style="stop-color:#93CEF9"/>
	<stop  offset="0.7084" style="stop-color:#72C0F8"/>
	<stop  offset="1" style="stop-color:#3FA9F5"/>
</radialGradient>
<rect x="230.102" y="171.775" fill="url(#SVGID_2_)" stroke="#000000" stroke-width="6" width="139.795" height="29.592"/>
<radialGradient id="SVGID_3_" cx="158.7046" cy="266.6738" r="25.6748" gradientUnits="userSpaceOnUse">
	<stop  offset="0" style="stop-color:#FFFFFF"/>
	<stop  offset="0.3596" style="stop-color:#9FD4FA"/>
	<stop  offset="0.4831" style="stop-color:#93CEF9"/>
	<stop  offset="0.7084" style="stop-color:#72C0F8"/>
	<stop  offset="1" style="stop-color:#3FA9F5"/>
</radialGradient>
<rect x="146.459" y="232.491" fill="url(#SVGID_3_)" stroke="#000000" stroke-width="5" width="24.49" height="68.366"/>
<rect x="209.694" y="397.282" fill="#B3B3B3" stroke="#000000" stroke-width="6" width="59.184" height="169.388"/>
<rect x="329.695" y="402.388" fill="#B3B3B3" stroke="#000000" stroke-width="6" width="59.183" height="169.388"/>
<radialGradient id="SVGID_4_" cx="440.5205" cy="266.6738" r="25.6748" gradientUnits="userSpaceOnUse">
	<stop  offset="0" style="stop-color:#FFFFFF"/>
	<stop  offset="0.3596" style="stop-color:#9FD4FA"/>
	<stop  offset="0.4831" style="stop-color:#93CEF9"/>
	<stop  offset="0.7084" style="stop-color:#72C0F8"/>
	<stop  offset="1" style="stop-color:#3FA9F5"/>
</radialGradient>
<rect x="428.275" y="232.491" fill="url(#SVGID_4_)" stroke="#000000" stroke-width="5" width="24.49" height="68.366"/>
<rect x="164.582" y="225.856" fill="#B3B3B3" stroke="#000000" stroke-width="4" width="270.836" height="171.426"/>
<rect x="183.163" y="247.286" fill="#666666" stroke="#808080" stroke-width="4" width="163.776" height="102.041"/>
<rect x="190.306" y="257.49" fill="#00FFFF" width="85.713" height="82.653"/>
<rect x="293.877" y="257.49" fill="#FFFF1F" width="40.307" height="82.653"/>
<circle fill="#666666" cx="390.224" cy="266.674" r="25.51"/>
<circle fill="#666666" cx="390.224" cy="331.979" r="25.51"/>
<circle fill="#FF0000" cx="390.225" cy="266.674" r="22.449"/>
<circle fill="#FFC700" cx="390.225" cy="331.979" r="22.449"/>
<circle fill="#29ABE2" stroke="#4D4D4D" stroke-width="3" cx="195.918" cy="374.837" r="9.184"/>
<circle fill="#29ABE2" stroke="#4D4D4D" stroke-width="3" cx="230.102" cy="374.837" r="9.184"/>
<circle fill="#29ABE2" stroke="#4D4D4D" stroke-width="3" cx="265.051" cy="374.837" r="9.184"/>
<circle fill="#29ABE2" stroke="#4D4D4D" stroke-width="3" cx="298.979" cy="374.837" r="9.184"/>
<rect x="93.49" y="257.489" fill="#CCCCCC" stroke="#000000" stroke-width="3" width="42.888" height="126.53"/>
<rect x="464.887" y="257.489" fill="#CCCCCC" stroke="#000000" stroke-width="3" width="42.889" height="126.53"/>
<rect x="447.663" y="217.185" fill="#808080" stroke="#000000" stroke-width="3" width="77.336" height="89.285"/>
<rect x="76.266" y="217.185" fill="#808080" stroke="#000000" stroke-width="3" width="77.336" height="89.285"/>
<g>
	<path fill="#E6361A" stroke="#000000" stroke-width="6" d="M86.35,415.158c0-12.619,10.23-22.849,22.85-22.849
		c12.619,0,22.849,10.229,22.849,22.849c0,6.688-2.874,12.704-7.453,16.882l18.484,19.196c9.612-9.029,15.625-21.848,15.625-36.078
		c0-27.342-22.164-49.505-49.505-49.505s-49.505,22.163-49.505,49.505c0,13.287,5.245,25.343,13.765,34.234l19.196-18.483
		C88.751,426.811,86.35,421.267,86.35,415.158z"/>
</g>
<g>
	<path fill="#E6361A" stroke="#000000" stroke-width="6" d="M467.177,415.158c0-12.619,10.229-22.849,22.85-22.849
		c12.619,0,22.85,10.229,22.85,22.849c0,6.688-2.875,12.704-7.453,16.882l18.484,19.196c9.611-9.029,15.625-21.848,15.625-36.078
		c0-27.342-22.164-49.505-49.506-49.505s-49.506,22.163-49.506,49.505c0,13.287,5.245,25.343,13.766,34.234l19.195-18.483
		C469.577,426.811,467.177,421.267,467.177,415.158z"/>
</g>
<g>
	<path fill="#FF0000" stroke="#000000" stroke-width="6" d="M290.347,593.856c0-34.729-28.153-62.882-62.882-62.882
		c-34.729,0-62.882,28.153-62.882,62.882c0,2.072,0.103,4.122,0.299,6.144h125.167C290.245,597.979,290.347,595.929,290.347,593.856
		z"/>
</g>
<g>
	<path fill="#FF0000" stroke="#000000" stroke-width="6" d="M427.596,593.856c0-34.729-28.152-62.882-62.882-62.882
		s-62.882,28.153-62.882,62.882c0,2.072,0.103,4.122,0.299,6.144h125.166C427.494,597.979,427.596,595.929,427.596,593.856z"/>
</g>
<g>
	<g>
		<polygon fill="#B3B3B3" stroke="#000000" stroke-width="4" points="215.077,474.394 390.13,472.551 433.586,398.901 
			170.078,401.674 		"/>
	</g>
	<g>
		<line fill="none" stroke="#000000" stroke-width="3" x1="197.069" y1="412.374" x2="225.229" y2="460.922"/>
		<line fill="none" stroke="#000000" stroke-width="3" x1="213.787" y1="412.374" x2="241.947" y2="460.922"/>
		<line fill="none" stroke="#000000" stroke-width="3" x1="230.929" y1="412.374" x2="259.089" y2="460.922"/>
		<line fill="none" stroke="#000000" stroke-width="3" x1="245.009" y1="412.375" x2="273.169" y2="460.923"/>
		<line fill="none" stroke="#000000" stroke-width="3" x1="257.92" y1="412.374" x2="286.08" y2="460.922"/>
	</g>
	<g>
		<line fill="none" stroke="#000000" stroke-width="3" x1="417.885" y1="412.373" x2="389.725" y2="460.922"/>
		<line fill="none" stroke="#000000" stroke-width="3" x1="401.168" y1="412.373" x2="373.008" y2="460.922"/>
		<line fill="none" stroke="#000000" stroke-width="3" x1="384.026" y1="412.373" x2="355.866" y2="460.922"/>
		<line fill="none" stroke="#000000" stroke-width="3" x1="369.946" y1="412.375" x2="341.786" y2="460.922"/>
		<line fill="none" stroke="#000000" stroke-width="3" x1="357.035" y1="412.373" x2="328.875" y2="460.922"/>
	</g>
	<g>
		<line fill="none" stroke="#000000" stroke-width="3" x1="307.731" y1="408.587" x2="307.731" y2="464.711"/>
		<line fill="none" stroke="#000000" stroke-width="3" x1="291.269" y1="417.201" x2="299.702" y2="456.097"/>
		<line fill="none" stroke="#000000" stroke-width="3" x1="324.072" y1="416.863" x2="315.639" y2="455.759"/>
	</g>
</g>
</svg>
